<svg width="109.57" height="75" viewBox="0 0 109.57 75" xmlns="http://www.w3.org/2000/svg"><g id="svgGroup" stroke-linecap="round" fill-rule="evenodd" font-size="9pt" stroke="#000" stroke-width="0.25mm" fill="#000" style="stroke:#000;stroke-width:0.25mm;fill:#000"><path d="M 53.76 22.168 L 64.99 75 L 72.119 75 L 80.273 42.627 L 81.592 34.424 L 82.959 42.627 L 91.211 75 L 98.34 75 L 109.57 22.168 L 101.563 22.168 L 95.703 55.859 L 94.385 64.16 L 92.969 55.859 L 84.57 22.168 L 78.76 22.168 L 70.313 55.859 L 68.994 63.428 L 67.92 55.859 L 61.768 22.168 L 53.76 22.168 Z M 9.082 56.738 L 15.723 50.342 L 35.107 75 L 46.582 75 L 21.924 44.189 L 43.311 22.168 L 32.324 22.168 L 14.99 39.551 L 9.082 45.898 L 9.082 0 L 0 0 L 0 75 L 9.082 75 L 9.082 56.738 Z" vector-effect="non-scaling-stroke"/></g></svg>